<?xml version="1.0" encoding="UTF-8"?>
<svg id="Capa_1" xmlns="http://www.w3.org/2000/svg" width="2893.06" height="313.83" viewBox="0 0 2893.06 313.83">
  <defs>
    <style>
      .cls-1, .cls-2 {
        fill: #fff;
      }

      .cls-3 {
        letter-spacing: -.1em;
      }

      .cls-4 {
        letter-spacing: -.04em;
      }

      .cls-5 {
        letter-spacing: -.04em;
      }

      .cls-2 {
        font-family: NexaBlack, 'Nexa Black';
        font-size: 95.78px;
      }
    </style>
  </defs>
  <text class="cls-2" transform="translate(2174.8 139.33)"><tspan class="cls-5"><tspan x="0" y="0">ALINEADORES </tspan></tspan><tspan class="cls-5" x="0" y="103.45">DEN</tspan><tspan class="cls-3" x="203.25" y="103.45">T</tspan><tspan class="cls-4" x="254.2" y="103.45">ALES</tspan></text>
  <path class="cls-1" d="M838.79,230.97c-58.38.96-134.6.39-193,.33-5.84,0-11.68-.01-18.96-.33V0h-86.27v311.63h298.23v-80.66Z"/>
  <path class="cls-1" d="M1433.27,311.4h85.58V0h-85.58v311.4Z"/>
  <g>
    <path class="cls-1" d="M2120.71,0h-121.04c-31.98,31.98-63.93,63.93-95.94,95.94,20.2,20.2,40.36,40.36,60.52,60.52,52.01-52.04,104.06-104.09,156.46-156.46Z"/>
    <path class="cls-1" d="M1903.73,216.98l94.36,94.36h121.01c-48.14-48.14-116.17-116.21-154.84-154.88l-60.52,60.52Z"/>
  </g>
  <path class="cls-1" d="M1024.6,0h-84.34v311.4h85.58V109.35c79.18,65.7,149.37,139.94,233.05,202.02v.02h85.58V.01h-85.58v202.35c-78.73-66.04-148.88-140.15-233.05-201.62l-.99-.74h-.25Z"/>
  <path class="cls-1" d="M1801.15,95.91l-.03.03c-31.98-31.98-63.9-63.93-95.94-95.94h-121.04c52.24,52.24,104.25,104.22,156.46,156.46-51.81,51.78-103.53,103.53-155.67,155.64h121.07c31.68-31.68,63.33-63.37,95.12-95.12l.03.03c20.33-20.36,39.96-39.96,60.52-60.52l-.03-.03.03-.07c-20.33-20.33-39.96-39.96-60.52-60.49Z"/>
  <path class="cls-1" d="M465.95,313.56c-34.6,0-65.29.43-95.91-.5-4.37-.13-9.8-6.29-12.55-10.93-29.73-50.75-59-101.77-88.5-152.69-11.55-19.9-23.31-39.7-36.25-61.71-11.55,19.07-22.45,36.55-32.81,54.36-30.96,53.2-61.91,106.44-92.3,159.97-5.1,9.01-11.06,11.95-21.02,11.75-27.48-.6-54.96-.2-86.61-.2,11.52-20.39,21.16-37.91,31.19-55.19,38.67-66.74,77.44-133.39,116.21-200.07l25.43-43.34,8.84-15.03h101.64l4.97,8.48.07.07,29.23,49.83c33.24,57.21,66.11,114.58,99.22,171.86,15.39,26.62,31.25,52.97,49.16,83.33Z"/>
</svg>