<?xml version="1.0" encoding="UTF-8"?>
<svg id="Capa_1" xmlns="http://www.w3.org/2000/svg" width="536.58" height="312.1" viewBox="0 0 536.58 312.1">
  <defs>
    <style>
      .cls-1 {
        fill: #fff;
      }
    </style>
  </defs>
  <g>
    <path class="cls-1" d="M536.58,0h-121.04c-31.98,31.98-63.93,63.93-95.94,95.94,20.2,20.2,40.36,40.36,60.52,60.52C432.13,104.42,484.17,52.38,536.58,0Z"/>
    <path class="cls-1" d="M319.6,216.98l94.36,94.36h121.01c-48.14-48.14-116.17-116.21-154.84-154.88l-60.52,60.52Z"/>
  </g>
  <path class="cls-1" d="M217.02,95.91l-.03.03C185,63.96,153.09,32.01,121.04,0H0c52.24,52.24,104.25,104.22,156.46,156.46C104.65,208.24,52.94,259.99.79,312.1h121.07c31.68-31.68,63.33-63.37,95.12-95.12l.03.03c20.33-20.36,39.96-39.96,60.52-60.52l-.03-.03.03-.07c-20.33-20.33-39.96-39.96-60.52-60.49Z"/>
</svg>